<?xml version="1.0" encoding="UTF-8" standalone="no"?>
<!DOCTYPE svg PUBLIC "-//W3C//DTD SVG 1.1//EN" "http://www.w3.org/Graphics/SVG/1.1/DTD/svg11.dtd">
<svg xmlns="http://www.w3.org/2000/svg" xmlns:xl="http://www.w3.org/1999/xlink" version="1.1" viewBox="-2648.7244 -1785.1339 481.88976 425.19685" width="481.88976pt" height="425.19685pt" xmlns:dc="http://purl.org/dc/elements/1.1/">
  <metadata> Produced by OmniGraffle 7.5 
    <dc:date>2017-12-11 10:09:51 +0000</dc:date>
  </metadata>
  <defs/>
  <g stroke="none" stroke-opacity="1" stroke-dasharray="none" fill="none" fill-opacity="1">
    <title>dhusIcons</title>
    <g>
      <title>Layer 16</title>
      <path d="M -2226 -1442.2334 C -2230.1942 -1435.9983 -2235.048 -1430.075 -2240.5615 -1424.5615 C -2286.6433 -1378.4794 -2361.3567 -1378.4794 -2407.4385 -1424.5615 C -2453.5206 -1470.6433 -2453.5206 -1545.3567 -2407.4385 -1591.4385 C -2361.3567 -1637.5206 -2286.6433 -1637.5206 -2240.5615 -1591.4385 C -2235.048 -1585.925 -2230.1942 -1580.0017 -2226 -1573.7666 L -2226 -1785 L -2649 -1785 L -2649 -1373 L -2226 -1373 Z" id="path"/>
      <clipPath id="clip_path">
        <use xl:href="#path"/>
      </clipPath>
      <g clip-path="url(#clip_path)">
        <image xl:href="image58.png" width="423" height="412" transform="translate(-2649 -1785)"/>
      </g>
    </g>
    <g>
      <title>Layer 8</title>
      <path d="M -2249.461 -1581.1248 C -2290.0755 -1620.9584 -2355.9245 -1620.9584 -2396.539 -1581.1248 C -2437.1537 -1541.2913 -2437.1537 -1476.7087 -2396.539 -1436.8752 C -2355.9245 -1397.0416 -2290.0755 -1397.0416 -2249.461 -1436.8752 C -2208.8463 -1476.7087 -2208.8463 -1541.2913 -2249.461 -1581.1248 Z M -2303.8145 -1440.934 L -2303.8145 -1440.934 C -2328.056 -1433.9874 -2355.217 -1440.1188 -2374.3043 -1459.3283 C -2402.3405 -1487.5436 -2402.3405 -1533.2897 -2374.3043 -1561.505 C -2346.2684 -1589.7205 -2300.8131 -1589.7205 -2272.7772 -1561.505 C -2266.2145 -1554.9004 -2261.188 -1547.3352 -2257.6977 -1539.259 C -2260.679 -1544.7126 -2264.4703 -1549.8387 -2269.072 -1554.4593 C -2295.2072 -1580.7023 -2337.5808 -1580.7023 -2363.716 -1554.4593 C -2389.8514 -1528.2163 -2389.8514 -1485.6682 -2363.716 -1459.4252 C -2347.4337 -1443.0758 -2324.849 -1436.912 -2303.8145 -1440.934 Z M -2315.2283 -1525.705 L -2315.2283 -1525.705 C -2304.2717 -1525.705 -2295.3973 -1516.8307 -2295.3973 -1505.874 C -2295.3973 -1494.9173 -2304.2717 -1486.043 -2315.2283 -1486.043 C -2326.185 -1486.043 -2335.0594 -1494.9173 -2335.0594 -1505.874 C -2335.0594 -1516.8307 -2326.185 -1525.705 -2315.2283 -1525.705 Z M -2270.906 -1510.8318 L -2270.906 -1510.8318 L -2260.693 -1510.8318 L -2260.693 -1500.9162 L -2270.906 -1500.9162 C -2273.1865 -1480.2424 -2289.5967 -1463.8321 -2310.2706 -1461.5516 L -2310.2706 -1451.3386 L -2320.186 -1451.3386 L -2320.186 -1461.5516 C -2340.86 -1463.8321 -2357.2702 -1480.2424 -2359.5508 -1500.9162 L -2369.7638 -1500.9162 L -2369.7638 -1510.8318 L -2359.5508 -1510.8318 C -2357.2702 -1531.5057 -2340.86 -1547.9159 -2320.186 -1550.1964 L -2320.186 -1560.4094 L -2310.2706 -1560.4094 L -2310.2706 -1550.1964 C -2289.5967 -1547.9159 -2273.1865 -1531.5057 -2270.906 -1510.8318 Z M -2315.2283 -1471.1696 L -2315.2283 -1471.1696 C -2296.0418 -1471.1696 -2280.524 -1486.6875 -2280.524 -1505.874 C -2280.524 -1525.0606 -2296.0418 -1540.5784 -2315.2283 -1540.5784 C -2334.415 -1540.5784 -2349.9327 -1525.0606 -2349.9327 -1505.874 C -2349.9327 -1486.6875 -2334.415 -1471.1696 -2315.2283 -1471.1696 Z" fill="#e67213"/>
    </g>
  </g>
</svg>
