<?xml version="1.0" encoding="iso-8859-1"?>
<!-- Generator: Adobe Illustrator 19.0.0, SVG Export Plug-In . SVG Version: 6.00 Build 0)  -->
<svg xmlns="http://www.w3.org/2000/svg" xmlns:xlink="http://www.w3.org/1999/xlink" version="1.1" id="Capa_1" x="0px" y="0px" viewBox="0 0 488.9 488.9" style="enable-background:new 0 0 488.9 488.9;" xml:space="preserve" width="512px" height="512px">
<g>
	<g>
		<g>
			<g>
				<path d="M0,331.4V73.3C0,53,16.5,36.5,36.8,36.5h381.9c20.3,0,36.8,16.5,36.8,36.8V271l-50.1-17.1V86.7H50.2v230.9h298.7      l17.3,50.6H269v41h29.2c4.9,0,8.8,4,8.8,8.8v25.6c0,4.9-4,8.8-8.8,8.8H157.4c-4.9,0-8.8-4-8.8-8.8V418c0-4.9,4-8.8,8.8-8.8h29.2      v-41H36.8C16.5,368.2,0,351.7,0,331.4z M175.8,183.7c-0.8,0.7-1.4,1.6-1.8,2.5s-0.8,2.5-1.4,4.6l-8.7,29.5l-7.8-27.4      c-0.8-2.7-1.4-4.7-1.9-5.8c-0.4-1.1-1.2-2.1-2.3-3.1s-2.7-1.4-4.6-1.4c-1.9,0-3.5,0.5-4.6,1.4c-1.1,1-1.9,1.9-2.3,3      c-0.4,1-1,3-1.9,5.9l-7.8,27.4l-8.6-29.5c-0.9-3-1.7-5.1-2.5-6.4c-0.8-1.2-2.3-1.9-4.4-1.9c-1.6,0-3,0.6-4.2,1.7      s-1.7,2.4-1.7,3.8c0,1.1,0.5,3.2,1.6,6.1l10.7,31.6c0.3,0.8,0.7,2,1.2,3.4s1.1,2.7,1.8,3.7s1.5,1.9,2.5,2.4      c1,0.6,2.2,0.8,3.7,0.8c2.8,0,4.8-0.9,5.9-2.7c1.1-1.8,2.2-4.5,3.1-8.1l7.3-25.7l7.5,25.7c0.6,2.3,1.2,4.2,1.8,5.7      c0.6,1.4,1.4,2.7,2.5,3.7s2.7,1.5,4.7,1.5c1.9,0,3.5-0.5,4.6-1.4s1.9-2,2.4-3.2s1.2-3.1,2.2-5.8l10.8-31.6      c1-2.7,1.5-4.8,1.5-6.1c0-1.5-0.6-2.8-1.7-3.9c-1.2-1.1-2.5-1.6-4.1-1.6C177.9,182.6,176.7,182.9,175.8,183.7z M256.2,183.7      c-0.8,0.7-1.4,1.6-1.8,2.5c-0.4,1-0.8,2.5-1.4,4.6l-8.7,29.5l-7.8-27.4c-0.8-2.7-1.4-4.7-1.9-5.8c-0.4-1.1-1.2-2.1-2.3-3.1      s-2.7-1.4-4.6-1.4c-1.9,0-3.5,0.5-4.6,1.4c-1.1,1-1.9,1.9-2.3,3c-0.4,1-1,3-1.9,5.9l-7.8,27.4l-8.6-29.5c-0.9-3-1.7-5.1-2.5-6.4      c-0.8-1.2-2.3-1.9-4.4-1.9c-1.6,0-3,0.6-4.2,1.7s-1.7,2.4-1.7,3.8c0,1.1,0.5,3.2,1.6,6.1l10.7,31.6c0.3,0.8,0.7,2,1.2,3.4      s1.1,2.7,1.8,3.7s1.5,1.9,2.5,2.4c1,0.6,2.2,0.8,3.7,0.8c2.8,0,4.8-0.9,5.9-2.7c1.1-1.8,2.2-4.5,3.1-8.1l7.3-25.7l7.5,25.7      c0.6,2.3,1.2,4.2,1.8,5.7c0.5,1.4,1.4,2.7,2.5,3.7s2.7,1.5,4.7,1.5c1.9,0,3.5-0.5,4.6-1.4s1.9-2,2.4-3.2s1.2-3.1,2.2-5.8      l10.8-31.6c1-2.7,1.5-4.8,1.5-6.1c0-1.5-0.6-2.8-1.7-3.9c-1.2-1.1-2.5-1.6-4.1-1.6C258.3,182.6,257,182.9,256.2,183.7z       M336.6,183.7c-0.8,0.7-1.4,1.6-1.8,2.5c-0.4,1-0.8,2.5-1.4,4.6l-8.7,29.5l-7.8-27.4c-0.8-2.7-1.4-4.7-1.9-5.8      c-0.4-1.1-1.2-2.1-2.3-3.1c-1.1-1-2.7-1.4-4.6-1.4s-3.5,0.5-4.6,1.4c-1.1,1-1.9,1.9-2.3,3c-0.4,1-1,3-1.9,5.9l-7.8,27.4      l-8.6-29.5c-0.9-3-1.7-5.1-2.5-6.4c-0.8-1.2-2.3-1.9-4.4-1.9c-1.6,0-3,0.6-4.2,1.7c-1.1,1.1-1.7,2.4-1.7,3.8      c0,1.1,0.5,3.2,1.6,6.1l10.7,31.6c0.3,0.8,0.7,2,1.2,3.4s1.1,2.7,1.8,3.7c0.7,1,1.5,1.9,2.5,2.4c1,0.6,2.2,0.8,3.7,0.8      c2.8,0,4.8-0.9,5.9-2.7s2.2-4.5,3.1-8.1l7.3-25.7l7.5,25.7c0.6,2.3,1.2,4.2,1.8,5.7c0.5,1.4,1.4,2.7,2.5,3.7s2.7,1.5,4.7,1.5      c1.9,0,3.5-0.5,4.6-1.4s1.9-2,2.4-3.2s1.2-3.1,2.2-5.8l10.8-31.6c1-2.7,1.5-4.8,1.5-6.1c0-1.5-0.6-2.8-1.7-3.9      c-1.2-1.1-2.5-1.6-4.1-1.6C338.6,182.6,337.4,182.9,336.6,183.7z M453.6,340.5l23.6-23.6c1.1-1.1,0.7-3-0.8-3.5l-101.9-34.7      c-1.7-0.6-3.3,1-2.7,2.7l34.7,101.8c0.5,1.5,2.4,1.9,3.5,0.8l23.4-23.3c0.8-0.8,2.2-0.8,3,0l34.7,34.6c0.8,0.8,2.2,0.8,3,0      l14.2-14.2c0.8-0.8,0.8-2.2,0-3l-34.7-34.6C452.8,342.7,452.8,341.3,453.6,340.5z" fill="#406BB0"/>
			</g>
		</g>
	</g>
</g>
<g>
</g>
<g>
</g>
<g>
</g>
<g>
</g>
<g>
</g>
<g>
</g>
<g>
</g>
<g>
</g>
<g>
</g>
<g>
</g>
<g>
</g>
<g>
</g>
<g>
</g>
<g>
</g>
<g>
</g>
</svg>
