<?xml version="1.0" encoding="UTF-8" standalone="no"?>
<!DOCTYPE svg PUBLIC "-//W3C//DTD SVG 1.1//EN" "http://www.w3.org/Graphics/SVG/1.1/DTD/svg11.dtd">
<svg xmlns="http://www.w3.org/2000/svg" xmlns:xl="http://www.w3.org/1999/xlink" version="1.1" viewBox="-2648.7244 -1785.1339 481.88976 425.19685" width="481.88976pt" height="425.19685pt" xmlns:dc="http://purl.org/dc/elements/1.1/">
  <metadata> Produced by OmniGraffle 7.5 
    <dc:date>2017-12-11 10:12:41 +0000</dc:date>
  </metadata>
  <defs/>
  <g stroke="none" stroke-opacity="1" stroke-dasharray="none" fill="none" fill-opacity="1">
    <title>dhusIcons</title>
    <g>
      <title>Layer 10</title>
      <path d="M -2226 -1442.2334 C -2230.1942 -1435.9983 -2235.048 -1430.075 -2240.5615 -1424.5615 C -2286.6433 -1378.4794 -2361.3567 -1378.4794 -2407.4385 -1424.5615 C -2453.5206 -1470.6433 -2453.5206 -1545.3567 -2407.4385 -1591.4385 C -2361.3567 -1637.5206 -2286.6433 -1637.5206 -2240.5615 -1591.4385 C -2235.048 -1585.925 -2230.1942 -1580.0017 -2226 -1573.7666 L -2226 -1785 L -2649 -1785 L -2649 -1373 L -2226 -1373 Z" id="path"/>
      <clipPath id="clip_path">
        <use xl:href="#path"/>
      </clipPath>
      <g clip-path="url(#clip_path)">
        <image xl:href="image55.png" width="423" height="412" transform="translate(-2649 -1785)"/>
      </g>
    </g>
    <g>
      <title>Layer 9</title>
      <path d="M -2248.6468 -1581.111 C -2289.4476 -1620.963 -2355.5986 -1620.963 -2396.3993 -1581.111 C -2437.2002 -1541.259 -2437.2002 -1476.6465 -2396.3993 -1436.7946 C -2355.5986 -1396.9425 -2289.4476 -1396.9425 -2248.6468 -1436.7946 C -2207.846 -1476.6465 -2207.846 -1541.259 -2248.6468 -1581.111 Z M -2297.5207 -1503.4724 L -2297.5207 -1503.4724 C -2289.1595 -1503.4724 -2282.3874 -1496.4745 -2282.3874 -1487.8346 C -2282.3874 -1479.1948 -2289.1595 -1472.1969 -2297.5207 -1472.1969 C -2305.882 -1472.1969 -2312.654 -1479.1948 -2312.654 -1487.8346 C -2312.654 -1496.4745 -2305.882 -1503.4724 -2297.5207 -1503.4724 Z M -2297.5207 -1464.378 L -2297.5207 -1464.378 C -2287.4192 -1464.378 -2267.254 -1459.1784 -2267.254 -1448.7402 L -2267.254 -1440.9213 L -2327.7874 -1440.9213 L -2327.7874 -1448.7402 C -2327.7874 -1459.1393 -2307.6222 -1464.378 -2297.5207 -1464.378 Z M -2361.8031 -1562.811 L -2361.8031 -1562.811 C -2350.057 -1562.811 -2340.5433 -1552.9801 -2340.5433 -1540.8425 C -2340.5433 -1528.705 -2350.057 -1518.874 -2361.8031 -1518.874 C -2373.5492 -1518.874 -2383.063 -1528.705 -2383.063 -1540.8425 C -2383.063 -1552.9801 -2373.5492 -1562.811 -2361.8031 -1562.811 Z M -2361.8031 -1507.8898 L -2361.8031 -1507.8898 C -2347.6122 -1507.8898 -2319.2835 -1500.5852 -2319.2835 -1485.9213 L -2319.2835 -1474.937 L -2404.3228 -1474.937 L -2404.3228 -1485.9213 C -2404.3228 -1500.5303 -2375.994 -1507.8898 -2361.8031 -1507.8898 Z M -2285.0945 -1537.9111 L -2285.0945 -1537.9111 C -2291.1034 -1537.9111 -2295.954 -1542.7617 -2295.954 -1548.7705 C -2295.954 -1554.7794 -2291.1034 -1559.63 -2285.0945 -1559.63 C -2279.0856 -1559.63 -2274.2713 -1554.7794 -2274.2713 -1548.7705 C -2274.2713 -1542.7617 -2279.0856 -1537.9111 -2285.0945 -1537.9111 Z M -2314.053 -1537.9111 L -2314.053 -1537.9111 C -2320.0617 -1537.9111 -2324.9123 -1542.7617 -2324.9123 -1548.7705 C -2324.9123 -1554.7794 -2320.0617 -1559.63 -2314.053 -1559.63 C -2308.044 -1559.63 -2303.2297 -1554.7794 -2303.2297 -1548.7705 C -2303.2297 -1542.7617 -2308.044 -1537.9111 -2314.053 -1537.9111 Z M -2314.053 -1530.6715 L -2314.053 -1530.6715 C -2305.6187 -1530.6715 -2288.7143 -1526.4364 -2288.7143 -1518.0023 L -2288.7143 -1508.9528 L -2339.3915 -1508.9528 L -2339.3915 -1518.0023 C -2339.3915 -1526.4364 -2322.487 -1530.6715 -2314.053 -1530.6715 Z M -2285.0945 -1530.6715 L -2285.0945 -1530.6715 C -2276.6604 -1530.6715 -2259.756 -1526.4364 -2259.756 -1518.0023 L -2259.756 -1508.9528 L -2281.4747 -1508.9528 L -2281.4747 -1518.0023 C -2281.4747 -1523.3596 -2284.4067 -1527.45 -2288.6057 -1530.4906 C -2287.3388 -1530.5991 -2286.1442 -1530.6715 -2285.0945 -1530.6715 Z" fill="#3f6bb0"/>
    </g>
  </g>
</svg>
