<?xml version="1.0" encoding="UTF-8" standalone="no"?>
<!DOCTYPE svg PUBLIC "-//W3C//DTD SVG 1.1//EN" "http://www.w3.org/Graphics/SVG/1.1/DTD/svg11.dtd">
<svg xmlns="http://www.w3.org/2000/svg" xmlns:xl="http://www.w3.org/1999/xlink" version="1.1" viewBox="-2648.7244 -1785.1339 481.88976 425.19685" width="481.88976pt" height="425.19685pt" xmlns:dc="http://purl.org/dc/elements/1.1/">
  <metadata> Produced by OmniGraffle 7.5 
    <dc:date>2017-12-11 10:08:01 +0000</dc:date>
  </metadata>
  <defs/>
  <g stroke="none" stroke-opacity="1" stroke-dasharray="none" fill="none" fill-opacity="1">
    <title>dhusIcons</title>
    <g>
      <title>Layer 15</title>
      <path d="M -2226 -1442.2334 C -2230.1942 -1435.9983 -2235.048 -1430.075 -2240.5615 -1424.5615 C -2286.6433 -1378.4794 -2361.3567 -1378.4794 -2407.4385 -1424.5615 C -2453.5206 -1470.6433 -2453.5206 -1545.3567 -2407.4385 -1591.4385 C -2361.3567 -1637.5206 -2286.6433 -1637.5206 -2240.5615 -1591.4385 C -2235.048 -1585.925 -2230.1942 -1580.0017 -2226 -1573.7666 L -2226 -1785 L -2649 -1785 L -2649 -1373 L -2226 -1373 Z" id="path"/>
      <clipPath id="clip_path">
        <use xl:href="#path"/>
      </clipPath>
      <g clip-path="url(#clip_path)">
        <image xl:href="image57.png" width="423" height="412" transform="translate(-2649 -1785)"/>
      </g>
    </g>
    <g>
      <title>Layer 7</title>
      <path d="M -2248.6468 -1581.111 C -2289.4476 -1620.963 -2355.5986 -1620.963 -2396.3993 -1581.111 C -2437.2002 -1541.259 -2437.2002 -1476.6465 -2396.3993 -1436.7946 C -2355.5986 -1396.9425 -2289.4476 -1396.9425 -2248.6468 -1436.7946 C -2207.846 -1476.6465 -2207.846 -1541.259 -2248.6468 -1581.111 Z M -2331.198 -1542.9961 L -2331.198 -1542.9961 C -2331.198 -1542.9961 -2331.198 -1542.9961 -2331.198 -1542.9961 L -2331.198 -1542.9961 C -2331.198 -1542.9961 -2331.198 -1542.9961 -2331.198 -1542.9962 L -2331.198 -1542.9962 C -2331.198 -1542.9961 -2331.198 -1542.9961 -2331.198 -1542.9961 L -2319.341 -1554.2594 L -2316.3138 -1557.1351 L -2315.8092 -1557.3748 C -2314.2955 -1558.573 -2312.5296 -1559.0523 -2309.7546 -1559.0523 C -2306.2227 -1559.0523 -2302.1863 -1557.6144 -2298.15 -1556.4162 C -2295.3749 -1555.4576 -2292.852 -1554.7387 -2290.077 -1554.0198 C -2286.7975 -1553.0612 -2283.2656 -1552.8215 -2279.7337 -1552.8215 C -2278.977 -1552.8215 -2278.4724 -1552.8215 -2277.7155 -1552.8215 C -2269.6427 -1553.3008 -2256.0198 -1562.8866 -2251.4788 -1566.002 C -2250.4697 -1566.7208 -2249.713 -1566.9605 -2248.956 -1566.9605 C -2248.1993 -1566.9605 -2247.947 -1566.7208 -2247.1902 -1566.2416 C -2246.938 -1566.002 -2246.938 -1566.002 -2246.6856 -1565.7623 C -2246.181 -1565.283 -2245.9288 -1564.8037 -2245.6765 -1564.3244 C -2243.6583 -1560.4901 -2241.64 -1556.6558 -2239.622 -1553.0612 C -2235.5855 -1545.8719 -2231.549 -1538.6826 -2227.765 -1531.4933 C -2228.0172 -1529.5762 -2228.5217 -1527.659 -2230.2877 -1526.4608 L -2230.2877 -1526.4608 C -2234.0718 -1523.585 -2248.956 -1512.8011 -2252.7402 -1509.6858 C -2255.263 -1507.529 -2259.047 -1504.6533 -2261.57 -1502.4965 C -2262.0744 -1502.0172 -2262.3267 -1501.7776 -2262.579 -1501.538 C -2262.8313 -1501.2983 -2263.0835 -1501.2983 -2263.3358 -1501.0586 C -2263.8404 -1500.819 -2264.0926 -1500.819 -2264.345 -1500.819 C -2264.5972 -1500.819 -2265.354 -1501.0586 -2265.8586 -1501.2983 L -2271.1564 -1506.0911 L -2283.518 -1517.1147 C -2283.7702 -1517.3544 -2284.0224 -1517.594 -2284.2747 -1517.8337 C -2284.527 -1518.0733 -2284.7793 -1518.313 -2285.0315 -1518.5526 L -2290.834 -1523.585 C -2292.3475 -1525.023 -2293.8612 -1526.4608 -2295.627 -1527.8987 C -2296.384 -1528.378 -2296.6362 -1528.8572 -2297.393 -1529.3365 L -2297.6453 -1529.5762 C -2297.8976 -1529.8158 -2298.15 -1530.0555 -2298.4022 -1530.2951 C -2298.4022 -1530.2951 -2298.4022 -1530.2951 -2298.4023 -1530.2951 C -2298.404 -1530.2951 -2298.4243 -1530.2951 -2298.6544 -1530.2951 C -2300.168 -1531.2537 -2301.934 -1532.2122 -2303.7 -1532.6915 C -2304.709 -1532.9312 -2305.7182 -1533.1708 -2306.7273 -1533.1708 C -2306.9795 -1533.1708 -2307.2318 -1533.1708 -2307.2318 -1533.1708 C -2310.0069 -1533.1708 -2312.2773 -1532.2122 -2314.2955 -1531.014 C -2315.0524 -1530.5347 -2315.557 -1530.0555 -2316.3138 -1529.3365 C -2316.3138 -1529.3365 -2316.566 -1529.3365 -2316.566 -1529.0969 C -2317.3229 -1528.378 -2318.0797 -1528.1383 -2318.8365 -1527.4194 C -2321.6115 -1525.2626 -2324.1343 -1523.3454 -2326.4048 -1521.4283 C -2326.657 -1521.1887 -2326.657 -1521.1887 -2326.9093 -1521.1887 C -2329.9367 -1519.0319 -2333.2162 -1518.0733 -2336.748 -1518.0733 C -2337.7572 -1518.0733 -2338.7663 -1518.0733 -2339.5231 -1518.313 C -2343.3073 -1519.0319 -2347.596 -1523.8247 -2346.8391 -1527.4194 C -2346.8391 -1527.8987 -2346.3346 -1528.378 -2346.0823 -1528.8572 C -2345.83 -1529.0969 -2345.83 -1529.0969 -2345.5778 -1529.3365 C -2345.3255 -1529.5762 -2345.0732 -1529.8158 -2344.821 -1530.0555 L -2343.8118 -1531.014 L -2332.7117 -1541.5583 C -2332.4594 -1541.798 -2332.207 -1542.0376 -2331.955 -1542.2772 C -2331.7026 -1542.5169 -2331.4504 -1542.7565 -2331.198 -1542.9961 L -2331.198 -1542.9961 C -2331.198 -1542.9961 -2331.198 -1542.9961 -2331.198 -1542.9961 Z M -2266.8677 -1473.7393 L -2266.8677 -1473.7393 C -2268.6336 -1472.0618 -2271.1564 -1471.1032 -2273.4268 -1471.1032 C -2275.1928 -1471.1032 -2276.7064 -1471.5825 -2278.22 -1472.3015 C -2277.4633 -1469.6654 -2278.4724 -1466.3104 -2280.7428 -1464.3932 C -2282.5088 -1462.7157 -2285.0315 -1461.7572 -2287.302 -1461.7572 C -2289.5725 -1461.7572 -2291.843 -1462.4761 -2293.3566 -1463.914 C -2292.852 -1461.2779 -2293.8612 -1458.1625 -2296.1317 -1456.2454 C -2297.8976 -1454.5679 -2300.4204 -1453.6093 -2302.6909 -1453.6093 C -2304.2045 -1453.6093 -2305.7182 -1454.0886 -2307.2318 -1454.5679 C -2307.2318 -1453.6093 -2307.484 -1452.6507 -2307.9886 -1451.6921 C -2308.4932 -1450.7336 -2308.9978 -1449.5354 -2310.259 -1448.5768 C -2310.5114 -1448.3371 -2310.7637 -1448.0975 -2311.016 -1448.0975 C -2311.016 -1448.0975 -2311.016 -1448.0975 -2311.2682 -1448.0975 C -2312.782 -1446.8993 -2315.0524 -1445.9407 -2317.3229 -1445.9407 C -2318.8365 -1445.9407 -2320.3502 -1446.42 -2321.8638 -1446.8993 L -2324.891 -1449.056 L -2317.575 -1457.6832 C -2311.016 -1465.3518 -2315.3047 -1472.7807 -2320.6024 -1477.0943 C -2323.6298 -1479.4908 -2327.414 -1480.2097 -2330.9458 -1479.7304 C -2330.9458 -1483.0854 -2332.207 -1486.68 -2335.4867 -1489.0765 C -2338.514 -1491.4729 -2342.2982 -1492.1918 -2345.83 -1491.7126 C -2345.83 -1495.0676 -2347.0914 -1498.6622 -2350.371 -1501.0586 C -2353.3983 -1503.455 -2357.1825 -1504.174 -2360.7143 -1503.6947 C -2360.7143 -1507.0497 -2361.9757 -1510.6444 -2365.2553 -1513.0408 C -2371.5622 -1518.5526 -2379.1305 -1520.4697 -2385.942 -1513.7597 L -2396.5375 -1501.2983 C -2396.7898 -1501.0586 -2396.7898 -1501.0586 -2397.042 -1500.819 L -2397.5466 -1501.0586 C -2398.3034 -1501.538 -2398.5557 -1502.0172 -2399.0603 -1502.2568 C -2402.8444 -1505.1326 -2414.9536 -1513.2804 -2418.99 -1516.1561 C -2420.756 -1517.3544 -2421.2605 -1519.0319 -2420.2514 -1520.949 C -2416.7196 -1528.378 -2412.9354 -1535.5672 -2409.4036 -1542.5169 C -2407.6376 -1546.3512 -2405.6194 -1550.1855 -2403.8535 -1554.0198 C -2403.0967 -1555.218 -2402.3398 -1556.1766 -2401.3307 -1556.4162 C -2400.3216 -1556.6558 -2399.3125 -1556.4162 -2398.3034 -1555.6973 C -2395.5284 -1553.7801 -2389.2215 -1549.7062 -2382.9146 -1546.8305 C -2378.626 -1544.9133 -2374.8418 -1543.7151 -2371.5622 -1543.4755 C -2370.0485 -1543.2358 -2367.2735 -1543.4755 -2364.7507 -1543.7151 C -2362.9848 -1543.9548 -2360.9666 -1544.434 -2359.2007 -1544.9133 C -2358.9484 -1544.9133 -2358.4438 -1545.153 -2358.1916 -1545.153 C -2357.1825 -1545.3926 -2356.4256 -1545.6323 -2355.4165 -1546.1115 C -2355.1642 -1546.1115 -2355.1642 -1546.1115 -2354.912 -1546.3512 C -2354.6597 -1546.3512 -2354.4074 -1546.5908 -2353.903 -1546.5908 C -2350.1187 -1547.5494 -2346.0823 -1548.2683 -2342.2982 -1548.9873 L -2354.1551 -1537.724 C -2354.6597 -1537.2447 -2354.912 -1536.7655 -2355.1642 -1536.7655 C -2355.6688 -1536.2862 -2356.1734 -1535.8069 -2356.1734 -1535.5672 C -2357.4347 -1533.8897 -2358.4438 -1531.733 -2358.9484 -1529.5762 L -2358.9484 -1529.3365 C -2359.7052 -1525.023 -2358.1916 -1519.9904 -2355.1642 -1515.9165 C -2351.8847 -1511.603 -2347.0914 -1508.4876 -2342.046 -1508.0083 C -2340.5322 -1507.7686 -2339.0186 -1507.529 -2337.505 -1507.529 C -2331.198 -1507.529 -2325.1434 -1509.4461 -2320.098 -1513.2804 C -2317.575 -1515.1976 -2315.0524 -1517.3544 -2312.2773 -1519.2715 C -2312.2773 -1519.2715 -2312.2773 -1519.2715 -2312.025 -1519.5112 C -2311.2682 -1520.23 -2310.7637 -1520.4697 -2310.0069 -1521.1887 C -2310.0069 -1521.1887 -2309.7546 -1521.1887 -2309.7546 -1521.4283 C -2309.7546 -1521.4283 -2309.7546 -1521.4283 -2309.5023 -1521.668 C -2308.7455 -1521.668 -2308.4932 -1521.668 -2307.7364 -1521.4283 C -2306.7273 -1521.1887 -2305.9704 -1520.949 -2304.9613 -1520.4697 C -2304.2045 -1519.9904 -2303.7 -1519.5112 -2302.943 -1519.0319 L -2301.6818 -1517.8337 L -2300.6726 -1516.875 L -2300.4204 -1516.6354 L -2297.1408 -1513.52 L -2294.8703 -1511.3633 L -2291.0862 -1507.529 L -2288.311 -1504.893 C -2288.0589 -1504.6533 -2288.0589 -1504.6533 -2287.8066 -1504.4136 L -2266.8677 -1487.1593 C -2263.3358 -1482.8458 -2263.3358 -1477.0943 -2266.8677 -1473.7393 Z M -2380.644 -1483.8043 L -2380.644 -1483.8043 C -2383.167 -1481.1683 -2387.2033 -1480.689 -2390.2306 -1482.8458 C -2390.483 -1483.0854 -2390.7352 -1483.325 -2390.9874 -1483.325 C -2391.492 -1483.8043 -2391.9965 -1484.2836 -2392.2488 -1485.0025 C -2392.2488 -1485.2422 -2392.501 -1485.4818 -2392.501 -1485.7215 C -2392.501 -1486.2008 -2392.7534 -1486.4404 -2392.7534 -1486.68 C -2392.7534 -1486.9197 -2392.7534 -1487.1593 -2392.7534 -1487.1593 C -2392.7534 -1487.399 -2392.7534 -1487.399 -2392.7534 -1487.6386 L -2392.7534 -1487.8783 C -2392.7534 -1487.8783 -2392.7534 -1488.1179 -2392.7534 -1488.3575 C -2392.7534 -1488.5972 -2392.7534 -1488.8368 -2392.7534 -1489.0765 C -2392.7534 -1489.5558 -2392.501 -1490.035 -2392.501 -1490.035 C -2392.2488 -1490.5143 -2391.9965 -1490.9936 -2391.7443 -1491.2333 C -2391.7443 -1491.4729 -2391.492 -1491.4729 -2391.492 -1491.7126 C -2391.492 -1491.7126 -2391.492 -1491.9522 -2391.2397 -1491.9522 L -2380.644 -1504.4136 C -2378.1214 -1507.0497 -2374.085 -1507.529 -2371.0576 -1505.3722 C -2370.8054 -1505.1326 -2370.553 -1504.893 -2370.3008 -1504.893 C -2370.0485 -1504.893 -2370.0485 -1504.6533 -2370.0485 -1504.6533 C -2369.7963 -1504.4136 -2369.7963 -1504.4136 -2369.7963 -1504.174 C -2369.544 -1503.9344 -2369.544 -1503.6947 -2369.2917 -1503.455 C -2369.2917 -1503.2154 -2369.0394 -1503.2154 -2369.0394 -1502.9758 C -2368.7871 -1502.7361 -2368.7871 -1502.4965 -2368.7871 -1502.2568 C -2368.7871 -1502.0172 -2368.535 -1501.7776 -2368.535 -1501.538 C -2368.0303 -1499.8604 -2368.535 -1497.9433 -2369.7963 -1496.2658 L -2380.644 -1483.8043 Z M -2365.7598 -1472.3015 L -2365.7598 -1472.3015 C -2368.2826 -1469.6654 -2372.319 -1469.1861 -2375.3463 -1471.3429 C -2375.5986 -1471.5825 -2375.851 -1471.8222 -2376.1031 -1471.8222 C -2376.6077 -1472.3015 -2376.86 -1472.5411 -2377.1123 -1472.7807 C -2377.3645 -1473.26 -2377.6168 -1473.7393 -2377.869 -1473.979 C -2377.869 -1474.2186 -2377.869 -1474.4582 -2378.1214 -1474.4582 C -2378.1214 -1474.6979 -2378.1214 -1474.9375 -2378.3736 -1474.9375 C -2378.3736 -1475.1772 -2378.3736 -1475.4168 -2378.3736 -1475.4168 C -2378.3736 -1475.6565 -2378.3736 -1475.8961 -2378.3736 -1476.1357 C -2378.3736 -1476.3754 -2378.3736 -1476.615 -2378.3736 -1476.615 C -2378.3736 -1476.8547 -2378.3736 -1476.8547 -2378.3736 -1477.0943 C -2378.3736 -1477.5736 -2378.1214 -1477.8132 -2378.1214 -1478.0529 L -2378.1214 -1478.2925 C -2377.869 -1479.0115 -2377.3645 -1479.4908 -2377.1123 -1480.2097 L -2376.6077 -1480.689 L -2366.5167 -1492.4315 C -2363.994 -1495.0676 -2359.9575 -1495.5468 -2356.9302 -1493.39 C -2356.678 -1493.1504 -2356.4256 -1492.9108 -2356.4256 -1492.9108 C -2356.1734 -1492.6711 -2356.1734 -1492.6711 -2356.1734 -1492.4315 C -2355.921 -1492.1918 -2355.921 -1492.1918 -2355.6688 -1491.9522 C -2355.4165 -1491.7126 -2355.4165 -1491.4729 -2355.1642 -1491.2333 C -2354.912 -1490.9936 -2354.912 -1490.5143 -2354.6597 -1490.2747 C -2354.6597 -1490.035 -2354.4074 -1489.7954 -2354.4074 -1489.5558 C -2353.146 -1488.1179 -2353.6506 -1485.9611 -2354.912 -1484.5233 L -2365.7598 -1472.3015 Z M -2338.2618 -1477.0943 L -2338.2618 -1477.0943 C -2338.514 -1477.334 -2338.514 -1476.8547 -2338.514 -1476.3754 C -2338.514 -1476.1357 -2338.514 -1475.8961 -2338.514 -1475.6565 C -2338.514 -1475.4168 -2338.514 -1475.1772 -2338.514 -1474.9375 C -2338.514 -1474.6979 -2338.7663 -1474.4582 -2338.7663 -1473.979 C -2338.7663 -1473.7393 -2339.0186 -1473.4997 -2339.0186 -1473.4997 C -2339.271 -1473.26 -2339.271 -1473.0204 -2339.5231 -1472.5411 C -2339.7754 -1472.3015 -2340.0277 -1472.0618 -2340.0277 -1471.8222 L -2349.362 -1461.0382 L -2350.6233 -1459.3607 C -2353.146 -1456.7247 -2357.1825 -1456.2454 -2360.2098 -1458.4022 C -2360.462 -1458.6418 -2360.7143 -1458.8814 -2360.9666 -1458.8814 C -2361.7234 -1459.6004 -2361.9757 -1460.3193 -2362.4802 -1461.2779 C -2362.4802 -1461.5175 -2362.7325 -1461.7572 -2362.7325 -1461.9968 C -2363.237 -1463.914 -2362.7325 -1465.8311 -2361.4711 -1467.5086 L -2360.462 -1468.7068 L -2350.6233 -1479.97 C -2348.1005 -1482.6061 -2344.064 -1483.0854 -2341.0368 -1480.9286 C -2340.7845 -1480.689 -2340.5322 -1480.4493 -2340.28 -1480.4493 C -2340.0277 -1480.2097 -2340.0277 -1479.97 -2339.7754 -1479.97 C -2339.5231 -1479.7304 -2339.5231 -1479.4908 -2339.271 -1479.2511 C -2339.0186 -1478.7718 -2338.7663 -1478.2925 -2338.514 -1478.0529 C -2338.514 -1477.8132 -2338.2618 -1477.5736 -2338.2618 -1477.5736 C -2338.2618 -1477.334 -2338.2618 -1477.0943 -2338.2618 -1477.0943 Z M -2323.882 -1464.8725 L -2323.882 -1464.8725 C -2323.882 -1464.6329 -2323.882 -1464.3932 -2323.882 -1464.1536 C -2323.882 -1463.914 -2323.882 -1463.6743 -2323.882 -1463.4347 C -2323.882 -1463.195 -2324.1343 -1462.9554 -2324.1343 -1462.4761 C -2324.1343 -1462.2364 -2324.3866 -1461.9968 -2324.3866 -1461.9968 C -2324.6389 -1461.7572 -2324.6389 -1461.5175 -2324.891 -1461.2779 C -2325.1434 -1461.0382 -2325.3957 -1460.7986 -2325.3957 -1460.559 L -2333.7208 -1450.7336 L -2335.9913 -1448.0975 C -2338.514 -1445.4614 -2342.5505 -1444.9821 -2345.5778 -1447.139 C -2345.83 -1447.3786 -2346.0823 -1447.6182 -2346.3346 -1447.6182 C -2346.587 -1447.6182 -2346.587 -1447.8579 -2346.587 -1447.8579 C -2346.587 -1448.0975 -2346.8391 -1448.0975 -2346.8391 -1448.3371 C -2347.0914 -1448.5768 -2347.0914 -1448.8164 -2347.3437 -1449.056 C -2347.3437 -1449.2957 -2347.596 -1449.2957 -2347.596 -1449.5354 C -2347.8482 -1449.775 -2347.8482 -1450.0146 -2347.8482 -1450.2543 C -2347.8482 -1450.494 -2348.1005 -1450.7336 -2348.1005 -1450.9732 C -2348.605 -1452.8904 -2348.1005 -1454.8075 -2346.8391 -1456.485 L -2345.0732 -1458.4022 L -2335.9913 -1468.9465 C -2333.4685 -1471.5825 -2329.432 -1472.0618 -2326.4048 -1469.905 C -2326.1525 -1469.6654 -2325.9002 -1469.4257 -2325.648 -1469.4257 C -2325.3957 -1469.1861 -2325.1434 -1468.9465 -2325.1434 -1468.7068 C -2324.891 -1468.4672 -2324.891 -1468.4672 -2324.891 -1468.2275 C -2324.891 -1467.9879 -2324.6389 -1467.9879 -2324.6389 -1467.7482 C -2324.6389 -1467.7482 -2324.6389 -1467.7482 -2324.6389 -1467.5086 C -2324.6389 -1467.269 -2324.3866 -1467.269 -2324.3866 -1467.0293 C -2324.3866 -1466.7897 -2324.1343 -1466.7897 -2324.1343 -1466.55 C -2324.1343 -1466.3104 -2323.882 -1466.0707 -2323.882 -1466.0707 C -2323.882 -1465.8311 -2323.882 -1465.5915 -2323.882 -1465.5915 C -2323.882 -1465.5915 -2323.882 -1465.1122 -2323.882 -1464.8725 Z" fill="#812333"/>
    </g>
  </g>
</svg>
