<?xml version="1.0" encoding="UTF-8" standalone="no"?>
<!DOCTYPE svg PUBLIC "-//W3C//DTD SVG 1.1//EN" "http://www.w3.org/Graphics/SVG/1.1/DTD/svg11.dtd">
<svg xmlns="http://www.w3.org/2000/svg" xmlns:xl="http://www.w3.org/1999/xlink" version="1.1" viewBox="-2648.7244 -1785.1339 481.88976 425.19685" width="481.88976pt" height="425.19685pt" xmlns:dc="http://purl.org/dc/elements/1.1/">
  <metadata> Produced by OmniGraffle 7.5 
    <dc:date>2017-12-11 10:15:04 +0000</dc:date>
  </metadata>
  <defs/>
  <g stroke="none" stroke-opacity="1" stroke-dasharray="none" fill="none" fill-opacity="1">
    <title>dhusIcons</title>
    <g>
      <title>Layer 14</title>
      <path d="M -2226 -1442.2334 C -2230.1942 -1435.9983 -2235.048 -1430.075 -2240.5615 -1424.5615 C -2286.6433 -1378.4794 -2361.3567 -1378.4794 -2407.4385 -1424.5615 C -2453.5206 -1470.6433 -2453.5206 -1545.3567 -2407.4385 -1591.4385 C -2361.3567 -1637.5206 -2286.6433 -1637.5206 -2240.5615 -1591.4385 C -2235.048 -1585.925 -2230.1942 -1580.0017 -2226 -1573.7666 L -2226 -1785 L -2649 -1785 L -2649 -1373 L -2226 -1373 Z" id="path"/>
      <clipPath id="clip_path">
        <use xl:href="#path"/>
      </clipPath>
      <g clip-path="url(#clip_path)">
        <image xl:href="image56.png" width="423" height="412" transform="translate(-2649 -1785)"/>
      </g>
    </g>
    <g>
      <title>inticon 2</title>
      <path d="M -2248.6468 -1581.111 L -2248.6468 -1581.111 C -2289.4476 -1620.963 -2355.5986 -1620.963 -2396.3993 -1581.111 C -2437.2002 -1541.259 -2437.2002 -1476.6465 -2396.3993 -1436.7946 C -2355.5986 -1396.9425 -2289.4476 -1396.9425 -2248.6468 -1436.7946 C -2207.846 -1476.6465 -2207.846 -1541.259 -2248.6468 -1581.111 Z M -2377.8011 -1569.1449 L -2377.8011 -1569.1449 C -2375.5697 -1569.66 -2373.4553 -1569.2934 -2371.458 -1568.0456 C -2369.4605 -1566.7977 -2368.1985 -1565.0323 -2367.6715 -1562.7502 C -2367.1448 -1560.468 -2367.5055 -1558.3283 -2368.7535 -1556.3309 C -2370.0013 -1554.3335 -2371.7412 -1553.0773 -2373.9727 -1552.5622 C -2376.2041 -1552.047 -2378.3185 -1552.4137 -2380.3158 -1553.6615 C -2382.3132 -1554.9094 -2383.5753 -1556.6748 -2384.1021 -1558.9569 C -2384.629 -1561.239 -2384.2682 -1563.3787 -2383.0204 -1565.3762 C -2381.7725 -1567.3735 -2380.0325 -1568.6297 -2377.8011 -1569.1449 Z M -2287.7745 -1557.4799 L -2287.7745 -1557.4799 C -2284.7748 -1559.2942 -2281.9955 -1561.832 -2279.4365 -1565.0936 L -2266.6518 -1509.7164 C -2275.3191 -1499.5972 -2288.1492 -1496.635 -2305.1423 -1500.8302 C -2305.6961 -1500.9157 -2307.1576 -1501.113 -2309.5253 -1501.4214 C -2311.8933 -1501.7289 -2313.4875 -1501.9213 -2314.306 -1501.9994 C -2315.1253 -1502.0772 -2316.6251 -1502.2117 -2318.8061 -1502.4027 C -2320.987 -1502.5939 -2322.6213 -1502.6168 -2323.7098 -1502.4723 C -2324.7984 -1502.3282 -2326.3353 -1502.16 -2328.3208 -1501.9687 C -2330.3063 -1501.7773 -2331.9488 -1501.3718 -2333.2477 -1500.751 C -2334.5465 -1500.1302 -2336.0428 -1499.438 -2337.7355 -1498.6733 C -2339.4281 -1497.9077 -2340.981 -1496.8823 -2342.3927 -1495.594 C -2343.8048 -1494.3067 -2345.2323 -1492.8552 -2346.6757 -1491.24 L -2359.4605 -1546.6184 C -2354.9828 -1552.6733 -2349.313 -1556.5728 -2342.4511 -1558.317 C -2335.5893 -1560.0613 -2327.4145 -1559.3583 -2317.9273 -1556.207 C -2313.9563 -1555.2009 -2310.383 -1554.5302 -2307.2072 -1554.1952 C -2304.0315 -1553.8602 -2300.749 -1553.8702 -2297.359 -1554.2255 C -2293.9691 -1554.5807 -2290.7742 -1555.6655 -2287.7745 -1557.4799 Z M -2366.681 -1543.1885 L -2342.6215 -1438.9751 C -2342.6215 -1438.9747 -2342.6214 -1438.9745 -2342.6214 -1438.9743 C -2342.6215 -1438.975 -2342.6215 -1438.975 -2342.6215 -1438.975 C -2342.317 -1437.656 -2342.5357 -1436.4042 -2343.2765 -1435.2184 C -2344.0178 -1434.0333 -2345.0475 -1433.2872 -2346.366 -1432.9828 C -2347.6842 -1432.6784 -2348.9114 -1432.9035 -2350.0465 -1433.6555 C -2351.1817 -1434.4082 -2351.9018 -1435.4448 -2352.206 -1436.7624 L -2376.2655 -1540.976 C -2376.2657 -1540.9766 -2376.2658 -1540.9772 -2376.266 -1540.9778 L -2376.2655 -1540.976 C -2376.5934 -1542.397 -2376.406 -1543.6682 -2375.7042 -1544.7912 C -2375.0021 -1545.9147 -2373.9917 -1546.6285 -2372.6733 -1546.9329 C -2371.3547 -1547.2373 -2370.1085 -1547.0443 -2368.9342 -1546.3539 C -2367.7602 -1545.6636 -2367.009 -1544.6086 -2366.6811 -1543.189 C -2366.6811 -1543.189 -2366.6811 -1543.189 -2366.6811 -1543.189 M -2366.681 -1543.1886 C -2366.681 -1543.1885 -2366.681 -1543.1885 -2366.681 -1543.1885 Z" fill="green"/>
    </g>
  </g>
</svg>
